<?xml version="1.0" encoding="UTF-8"?>
<svg id="Layer_1" xmlns="http://www.w3.org/2000/svg" version="1.1" viewBox="0 0 320.4 341">
  <!-- Generator: Adobe Illustrator 30.3.0, SVG Export Plug-In . SVG Version: 2.1.3 Build 182)  -->
  <defs>
    <style>
      .st0 {
        fill: #fff;
      }

      .st1 {
        fill: #00699f;
        isolation: isolate;
        opacity: .2;
      }

      .st2 {
        display: none;
      }
    </style>
  </defs>
  <path class="st0" d="M196.13,142.06c-11.27,11.72-10.25,18.48-22.13,23.04-2.98,1.13-6.65,2.35-11.33,3.43-2.75-8.5-9.68-16.94-17-16.94-5.07,0-10.94,2.64-17.69,5.63-7.93,3.49-15.2,7.49-17.51,9.01l3.1,4.16c2.36-1.3,9.18-4.68,16-7.6,5.92-2.53,11.27-4.62,14.86-4.62,5.81,0,9.58,6.6,11.67,11.88-7.6,1.81-20.11,2.25-23.88,2.25-1.75,0-2.37.29-2.98.8-.57.51-1.02,1.4-1.3,2.64l-.45,1.92h4.05c21.05,0,40.95-3.32,53.73-11.1,1.81.5,3.38.84,5.41.84,7.31,0,14.88-3.99,19.6-7.65,1.7-1.3,2.09-2.47,2.09-3.77,0-.62-.06-1.19-.12-1.76l-.22-2.2c-6.76,5.35-12.38,9.35-19.37,9.35-1.24,0-2.15-.11-2.87-.34,6.82-10.93,12.9-20.62,27.83-28.5-1.58-.96-3.83-2.42-5.01-3.21-5.82,2.54-11.57,7.61-16.46,12.74Z"/>
  <path class="st0" d="M172.87,145.32c-4.79,0-4.34-8.17-4.68-14.64-16.89,1.63-27.48,6.65-39.1,12.89l1.36,5.18c10.53-6.31,20.67-9.91,31.42-10.98.12,6.19,2.76,14.48,9.81,14.48,7.54,0,16.71-11.83,27.48-25.69l2.82-3.66c-1.47-1.13-3.09-2.15-4.11-3.09-11.04,14.2-20.61,25.52-25.01,25.52Z"/>
  <path class="st0" d="M143.37,57.34c-2.76.56-4.79,1.07-7.21,1.07-1.58,0-3.38-.23-5.52-.73-1.64-.4-3.38-.74-5.85-.74-4.45,0-9.24,1.69-12.51,4.84-5.98,5.69-6.31,11.82-6.71,17.28-.5,7.27-1.86,9.08-5.79,14.37-3.21,4.33-7.61,10.03-10.99,16.06,1.08.5,4.62,2.41,5.86,3.09,3.88-5.85,9.29-13.06,12.83-18.53,3.21-4.95,4.51-7.09,4.73-13.74.06-1.13.06-2.2.17-3.27.29-3.43,1.19-6.93,4.46-10.14,2.41-2.43,5.91-3.66,9.41-3.66s5.35.96,8.27.96c2.09,0,3.61-.51,4.95-1.01l1.08-.4-2.59,6.2,6.08,2.47c-3.88,2.41-12.39,12.83-12.39,25.18,0,4.44.68,8.55,1.64,12.21.11.39.33.79.95.79.57,0,.97-.34,1.02-.95l.06-1.3c.18-3.77.45-9.74,1.97-15.09,2.53-9.01,9.35-17.46,16.18-21.52l-9.69-4.22,4.16-10.2-4.55.98Z"/>
  <path class="st0" d="M172.64,16.29c-3.66,0-4.67,3.54-4.67,5.52,0,1.58.56,3.44,2.53,3.44,1.63,0,3.65-1.18,5.23-2.48,1.53-1.24,2.53-2.25,2.53-3.26,0-.95-.9-1.86-2.26-2.47-.94-.46-2.13-.74-3.37-.74Z"/>
  <polygon class="st0" points="150.23 87.81 147.53 93 176.31 93 174.17 87.81 150.23 87.81"/>
  <path class="st0" d="M116.94,40.05c1.52-.91,2.81-2.2,2.81-3.55,0-.62-.27-1.24-.9-1.81-1.07-1.01-2.53-1.52-3.77-1.52-2.82,0-4.28,2.64-4.28,5.07,0,1.86.91,2.92,2.64,2.92,1.07,0,2.32-.45,3.49-1.12Z"/>
  <path class="st0" d="M284.34,143.41l2.75,1.92c.39.28.68.45,1.02.45.57,0,.96-.56.96-1.01,0-.28-.12-.57-.45-.85-8.23-7.49-17.07-16.61-25.36-25.41-6.48-6.93-13.12-14.24-18.98-21.62-.4-.51-.73-.74-1.19-.74-.67,0-1.01.45-1.01.96,0,.79.56,1.74,1.97,4.11,4.27,7.26,9.57,14.59,16.11,21.45,7.04,7.48,15.33,14.47,24.18,20.74Z"/>
  <path class="st0" d="M248.92,245.19h-6.71c-1.75,0-2.92.62-3.77,1.64-.68.84-1.13,1.92-1.13,3.38v73.72c0,1.47.45,2.53,1.13,3.38.85,1.02,2.03,1.64,3.77,1.64h6.71c1.75,0,2.92-.62,3.77-1.64.68-.84,1.13-1.92,1.13-3.38v-73.72c0-1.47-.45-2.53-1.13-3.38-.85-1.02-2.03-1.64-3.77-1.64Z"/>
  <path class="st0" d="M132.49,71.2c0-.73-.33-1.47-1.18-2.03-.95-.68-2.14-.96-3.2-.96-2.37,0-3.32,1.41-3.78,2.87-.22.68-.27,1.35-.27,1.92,0,2.03.9,3.43,2.36,3.43,2.02,0,6.07-2.81,6.07-5.24Z"/>
  <path class="st0" d="M54.59,140.37l.41,2.41c.16,1.02.56,1.86,1.4,2.26,1.02.51,2.48.57,5.02.57,6.42,0,11.1-.79,13.8-1.47,6.93,10.3,16.44,14.25,25.63,14.25,7.83,0,15.77-2.87,23.37-7.04l-1.42-5.13c-7.42,4.18-15.14,6.94-21.95,6.94-7.6,0-14.37-3.27-20-11.77-2.36-3.59-4.22-8.1-6.49-12.1-2.7-4.73-5.63-7.26-10.75-7.26-4.68,0-9.24,1.93-14.08,4l.22,1.07c.39,1.75,1.08,2.98,2.71,2.98.73,0,1.47-.34,1.86-.45,2.7-.85,4.67-1.58,7.43-1.58,4.22,0,6.25,2.47,9.12,8.56l1.08,2.26c-2.93,1-9.8,1.52-14.92,1.52h-2.44Z"/>
  <path class="st0" d="M289.97,266.42c-19.55,0-30.53,15.27-30.53,31.37,0,17.18,11.77,32.28,30.63,32.28,9.42,0,18.65-3.55,23.95-9.8,2.31-2.71,4.17-6.49,4.17-8.79,0-.79-.17-1.47-.62-1.97-.45-.57-1.13-.91-2.31-.91h-9.06c-1.81,0-3.04.67-3.95,2.04-2.64,3.88-6.47,5.92-12.1,5.92-8.45,0-13.92-6.43-14.31-13.47h39.32c1.74,0,2.99-.39,3.83-1.24.96-.9,1.41-2.2,1.41-4.61,0-7.38-2.31-15.05-7.15-20.9-4.97-5.93-12.62-9.93-23.27-9.93ZM275.94,291.09c.74-6.93,6.04-12.1,14.08-12.1s13.35,5.18,14.09,12.1h-28.17Z"/>
  <path class="st0" d="M266.94,29.75h.91c0,.39-.06.85-.06,1.24,0,6.37,3.27,11.1,11.33,11.1,4.95,0,12.73-2.48,20.05-4.96,6.08-2.09,11.66-4.22,14.42-5.01v-6.77c-3.15.96-9.57,3.43-16.22,5.74-6.99,2.42-13.86,4.63-17.86,4.63-4.39,0-5.63-2.42-5.63-5.87,0-7.09,4.45-17.28,7.26-23.09h-6.82c-3.54,6.88-17.51,28.9-25.06,38.02l4.33,4.68c4.04-4.5,8.49-12.16,13.34-19.71Z"/>
  <path class="st0" d="M219.22,29.64c-5.69-5.47-10.02-11.67-12.78-14.65-6.15-6.71-14.08-14.99-27.14-14.99s-20.96,8.22-23.66,15.33c-.8,2.04-1.41,4.5-1.98,5.41-1.24,2.03-6.82,11.55-9.12,15.32h10.42l-5.07,9.58c5.91-1.31,10.13-2.27,15.77-2.27,5.01,0,8.62,1.19,10.2,4.34,2.93,5.86,2.93,23.59,7.88,36.95,4.61,12.56,15.89,24.85,28.56,34.24l.56.18c.62,0,1.01-.46,1.01-.91,0-.34-.11-.56-.39-.85-10.6-10.59-19.21-22.3-23.82-35.14-4.56-12.5-3.83-30.08-7.83-37.91-2.64-5.18-8.27-6.54-13.46-6.54-4.16,0-8.05.85-9.86,1.24l4.57-7.72h-7.72c1.63-2.87,3.33-5.52,4.17-7.09.73-1.36,1.02-3.04,1.92-5.35,2.93-7.38,9.41-12.06,17.86-12.06,10.59,0,16.78,6.82,22.93,13.64,2.81,3.14,7.44,9.74,12.78,14.64,3.66,3.38,10.64,7.14,21.39,18.25,6.21,6.42,13.41,14.76,21.02,25.91,27.2,39.82,45.06,74.91,55.02,102.28l-.17.11c-28.56-19.38-53.28-37.68-73.22-60.26-14.14-16.06-26.41-34.64-37.12-58.37-.73-1.57-1.36-3.03-2.04-4.55-.27-.62-.56-.79-1.01-.79-.57,0-.97.39-.97.95,0,.62.29,1.98.9,4.67,5.7,24.56,21.46,46.58,38.31,64.89,16.78,18.19,35.77,33.86,51.37,45.22l12.17,34.82c.28.85.61,1.74.61,2.59,0,.62-.16,1.13-.55,1.47-.34.33-.79.51-1.81.51h-3.66c-1.58,0-2.2-.23-2.75-.68-.57-.45-.97-1.13-1.24-1.92-1.07-3.26-7.5-21.57-8.73-25.29-.22-.68-.62-.9-1.07-.9-.56,0-.95.45-.95.96,0,.45.17.96.45,2.53,1.63,8.33,3.54,17.69,4.33,21.23.35,1.65.74,3.16.74,4.29,0,1.01-.23,1.58-1.07,2.41l-3.78,3.83c-.9.91-1.4,1.13-2.14,1.13-.91,0-1.64-.61-1.98-2.19-4.28-20-10.76-44.79-12.44-51.66-.4-1.53-.68-2.37-1.58-2.37-.79,0-1.08.57-1.08,1.25,0,.51.11,1.13.18,1.58,1.01,7.09,5.12,32.96,9.57,56.56.79,4.06,2.31,6.31,5.81,6.31,1.58,0,3.09-.62,4.5-1.99,2.31-2.31,2.98-2.92,5.75-5.63,1.98-1.92,3.32-2.7,6.7-2.7h8.34c1.97,0,3.04-.5,3.99-1.41.91-.85,1.47-2.03,1.47-3.71s-.45-3.15-1.07-4.9c-2.14-5.74-9.01-25.17-11.03-30.63l.16-.11c7.04,5.35,17.29,12.16,21.8,12.16,1.4,0,2.25-.62,2.25-2.81,0-10.37-17.23-53-56.61-111.69-20.96-31.26-39.38-41.8-44.56-46.75Z"/>
  <path class="st0" d="M268.68,68.72c7.1-2.93,13.46-4.84,19.2-4.84,8.05,0,14.65,0,25.69-2.59v-5.18c-6.2,1.13-12.78,2.47-17.06,2.47-2.53,0-3.27-.34-3.27-1.18,0-.5.34-.85,1.3-1.24,6.76-2.87,18.87-7.72,25.85-10.26v-6.87c-14.03,5.18-38.64,15.37-55.42,24.5.46.55,3.39,4.67,3.72,5.18Z"/>
  <path class="st0" d="M76.22,67.81c-7.93,9.4-12.1,17.01-19.04,33.91,1.13-.12,2.76-.23,4.57-.23.91,0,1.64,0,2.81.06l.84-1.81c3.89-8.34,9.13-19.6,16.45-28.27l2.53-2.98c7.55-8.85,12.22-14.09,15.16-26.13,1.02-4.28,1.86-8.11,4.73-10.87,2.59-2.47,5.87-3.55,9.18-3.55,2.81,0,4.91.68,7.94,1.97,2.75,1.18,3.77,1.41,6.71,1.41,1.01,0,1.74-.06,2.41-.11l-3.94,5.3,5.35,3.77c-6.71,1.97-10.26,8.45-11.44,11.44-.22.62-.34,1.01-.34,1.41,0,.45.23.9.9.9.74,0,1.3-.56,2.26-1.69,3.27-3.95,5.87-6.65,17.91-10.42l-8.51-6.43,6.43-9.4h-6.03c-3.82,0-6.36-.06-9.69-1.58-4.51-2.09-6.82-2.98-10.82-2.98-4.9,0-9.35,1.75-13.01,5.12-4.22,3.89-5.53,9.08-7.04,14.76-1.18,4.4-2.59,9.24-5.74,13.69-2.64,3.77-4.55,5.63-10.59,12.72Z"/>
  <path class="st0" d="M27.44,46.69c-13.8,0-19.66,6.65-19.66,11.1-4.11,1.7-6.76,6.26-6.76,10.48,0,8.39,6.14,14.37,14.25,14.37,2.7,0,5.47-1.08,7.38-2.53,1.41.5,3.2.78,5.06.78,3.89,0,8.22-1.36,11.28-5.8.45.06.85.06,1.3.06,4.95,0,9.24-3.27,11.49-7.55.56-1.06.79-1.92.79-2.52s-.28-1.13-.9-1.13c-.79,0-.91.74-2.32,2.03-3.15,2.87-7.99,3.95-12.95,3.95-2.42,3.54-5.41,5.41-8.84,5.41-2.53,0-4.5-.68-6.54-2.03-1.64,1.81-3.66,2.53-5.63,2.53-4.45,0-7.6-3.1-7.6-7.61,0-3.15,2.03-5.97,4.84-7.04.5-5.58,6.47-9.35,13.91-9.35.96,0,1.92.05,2.93.17,1.13-1.8,3.83-3.71,7.66-4.22.79-.11,1.4-.17,1.86-.39.45-.23.67-.68.67-1.18,0-.45-.17-.85-.61-1.13-.39-.23-1.08-.34-1.86-.5-3.55-.68-7.77-2.87-9.92-8.22-8.51,0-14.75-6.83-14.75-14.48v-.52c-2.82-1.13-4.73-3.83-4.73-7.03,0-4.23,3.32-7.6,7.54-7.6,2.53,0,4.73,1.24,6.15,3.09,1.18-.34,2.52-.45,3.82-.45,6.31,0,13.07,4,14.36,11.77,8.11.74,10.03,7.6,10.55,10.48.27,1.47.5,2.7,1.47,2.7s1.24-1.13,1.58-2.64c.62-2.88,1.69-5.19,3.83-6.99,0-7.37,5.52-13.74,13.35-13.74,1.18-2.59,3.77-4.39,6.87-4.39,4.23,0,7.6,3.26,7.6,7.6,0,2.53-1.18,4.73-3.04,6.08.4,1.47.67,2.76.67,4,0,4.74-2.81,8.05-7.99,9.8-.68,2.88-1.92,5.47-3.94,7.38-3.38,3.27-6.82,3.27-6.82,4.62,0,.73.5,1.19,1.92,1.19,6.26,0,12.39-3.5,13.12-9.3,5.98-2.03,9.58-8.06,9.58-12.84,0-1.24-.11-2.31-.62-3.32,1.64-1.57,3.55-4.27,3.55-8.27,0-3.49-1.53-7.03-4.22-9.64-2.4-2.33-5.73-3.85-9.61-3.85-5.63,0-9.29,3.04-11.39,6.03-6.14,0-14.07,6.82-14.07,16.56h-.85c-.56-3.38-4.06-5.63-6.98-5.81-2.37-7.09-7.72-13.17-16.51-13.17-1.01,0-2.25.06-3.32.22-2.59-2.36-5.46-3.83-9.46-3.83C7.28,0,1.03,6.14,1.03,13.91c0,4.85,2.2,8.16,6.37,11.11l-.06.91c0,6.19,6.76,15.88,16.78,15.88,0,1.58,1.97,3.72,4.17,4.11v.79h-.85Z"/>
  <path class="st0" d="M178.96,292.94l-12.78-3.27c-5.3-1.35-7.77-2.32-7.77-5.57s2.82-5.7,9.35-5.7c3.83,0,7.32.85,9.58,3.21,1.86,1.97,1.52,2.98,2.98,3.77.91.45,1.92.45,3.49.45h6.37c1.02,0,1.75-.17,2.31-.79.46-.51.73-1.3.73-2.59,0-2.93-1.91-6.71-5.29-9.58-4.51-3.88-11.61-6.47-20.17-6.47-15.43,0-25.57,7.32-25.57,19.03,0,4.17,1.52,7.54,3.99,10.19,2.87,3.1,6.99,5.25,12.95,6.77l12.9,3.25c3.54.91,6.71,1.99,6.71,5.07,0,4.79-5.07,6.42-10.49,6.42-2.64,0-5.4-.5-7.65-1.63-1.58-.79-2.92-1.91-3.89-3.43-.84-1.3-1.13-2.26-2.41-2.98-.79-.46-1.75-.51-3.04-.51h-6.99c-1.52,0-2.25.45-2.75,1.07s-.68,1.52-.68,2.42c0,2.25.79,5.06,2.64,7.6,4.28,5.74,13.23,10.37,24.67,10.37s26.86-4.68,26.86-19.78c0-3.89-1.13-7.21-3.2-9.92-2.65-3.4-6.43-5.76-12.84-7.4Z"/>
  <path class="st0" d="M50.32,47.48c2.98,4.34,7.99,12.73,12.73,23.89.84-1.42,3.37-4.84,4.39-5.92-4.34-8.79-11.44-17.18-14.54-20.5l-2.58,2.52Z"/>
  <path class="st0" d="M189.49,111.75c-3.37,1.47-11.15,4.27-18.86,4.27-3.84,0-7.04-.33-10.6-.79-4.39-.56-8.56-1.07-12.1-1.07-5.92,0-13.24.57-20.34,5.58l3.1,4.06c4.84-2.31,12.67-3.43,16.55-3.43,3.55,0,7.2.39,10.59.84,3.83.51,8.28,1.07,12.95,1.07,10.6,0,20.97-5.63,22.59-6.65-1.3-1.13-2.93-2.7-3.89-3.88Z"/>
  <path class="st0" d="M120.78,119.47l-3.26-4.23c-12.62,4.85-26.64,12.67-26.64,20.68,0,4.56,3.38,8.16,10.98,8.16,11.16,0,23.04-5.63,32.57-10.87l-1.36-1.86c-.79-1.14-1.47-1.47-2.53-1.47-.68,0-1.42.27-2.03.56-8.16,4-17.01,8-25.24,8-4.74,0-5.92-1.46-5.92-3.5,0-5.74,15.66-12.39,23.43-15.48Z"/>
  <path class="st0" d="M229.19,268.57h-10.19v-18.36c0-1.47-.46-2.53-1.13-3.38-.85-1.01-2.04-1.63-3.77-1.63h-6.37c-1.74,0-2.92.62-3.77,1.63-.67.85-1.13,1.92-1.13,3.38v18.36h-3.15c-1.18,0-2.09.34-2.76.9-.74.68-1.07,1.58-1.07,2.92v3.88c0,1.36.33,2.27,1.07,2.92.68.57,1.58.91,2.76.91h3.15v28.1c0,7.2,1.98,11.71,5.64,15.32,3.37,3.32,7.77,5.41,15.43,5.41h4.79c1.18,0,2.08-.34,2.75-.91.74-.67,1.18-1.57,1.18-2.92v-4.9c0-1.35-.45-2.26-1.18-2.92-.68-.57-1.58-.91-2.75-.91h-.68c-3.04,0-5.13-.79-6.55-2.15-1.69-1.58-2.53-3.99-2.53-7.15v-26.97h10.26c1.18,0,2.09-.34,2.75-.91.74-.67,1.07-1.58,1.07-2.92v-3.88c0-1.36-.34-2.26-1.07-2.92-.66-.55-1.57-.89-2.75-.89Z"/>
  <path class="st0" d="M314.82,257.8c1.18,0,2.08-.34,2.75-.91.74-.67,1.07-1.58,1.07-2.92v-5.24c0-2.04-.39-3.05-1.07-3.78-.61-.67-1.64-1.06-2.75-1.06-.91,0-1.81.11-3.32.27l-44.95,4.45c-1.29.12-1.92.51-2.36,1.02-.52.57-.73,1.29-.73,2.31v2.93c0,1.13.22,1.63.62,2.09.5.56,1.24.84,2.25.84h48.51Z"/>
  <path class="st0" d="M59.56,203.55c-3.77,2.21-8.45,3.22-12.56,3.22-1.75,0-2.53.34-3.15.96-.68.67-1.02,1.69-1.02,3.09v1.97h1.41c7.54,0,14.53-1.18,22.19-7.2l24.95-19.5c3.55,4.06,12.5,9.69,23.09,9.69,5.98,0,9.8-1.46,15.32-2.86,4.28-1.07,8.45-2.04,17.57-2.04h26.41c13.52,0,20.06-2.81,27.26-6.87,15.67-8.79,29.01-23.66,36.56-40.72-1.98-1.25-3.83-2.37-5.41-3.44-8.45,17.8-21.29,30.76-34.48,38.25-6.25,3.55-11.88,5.86-24.05,5.86h-26.3c-9.4,0-15.32,1.24-19.93,2.41-4.96,1.3-8.12,2.59-13.12,2.59-7.43,0-14.32-3.66-17.64-7.15l6.21-4.9-3.09-4.11c-1.81,1.3-23.83,17.57-28.45,21.23l-.27-.17c.11-1.13.11-2.14.11-3.14,0-12.39-5.75-15.38-14.48-18.87l-5.92,3.5c11.99,3.99,14.98,7.2,14.98,16.17,0,7.08-2.52,9.9-6.19,12.03Z"/>
  <path class="st0" d="M3.29,194.94c4.22,0,4.72-2.53,4.72-4.96,0-1.63-.05-3.49-.05-5.52.05-4.67.23-8.84,7.77-12.22,3.04-1.35,17.96-7.43,29.07-12.16,3.27-1.41,6.31-2.58,9.69-2.58,3.77,0,8.11,1.63,13.51,4.85,4.57,2.7,9.36,6.37,13.13,10.59l4.78-3.66c-4.11-4.84-9.8-9.18-15.49-12.55-5.69-3.37-10.76-5.36-15.04-5.36-1.86,0-3.39.34-4.68.68-1.53.4-2.93.85-4.74.85-2.08,0-3.83-.5-6.37-3.43-.95-1.07-7.04-7.99-8.33-10.02-.63-.96-1.75-2.88-1.75-5.13,0-.96.17-2.09.73-3.09,5.24,4.06,11.72,6.54,19.61,7.49l-1.08-5.35c-11.32-2.98-23.38-12.95-23.38-19.38,0-1.36.34-2.31.84-3.5,4.39,4.06,14.71,8.29,20.28,8.29,3.04,0,5.53-1.02,7.88-1.98,2.26-.9,4.51-1.79,7.54-1.79,7.21,0,16.11,3.48,23.94,6.81.46.17.96.29,1.46.29,1.25,0,2.21-.57,2.82-1.76l1.02-1.86c-8.61-5.01-22.36-10.37-29.53-10.37-3.26,0-5.63.85-7.88,1.75-2.53,1.01-4.73,2.08-7.04,2.08-5.69,0-20.28-5.63-20.28-11.1,0-6.43,23.2-8.9,25.74-8.9l2.31-5.24c-16.83,0-36.89,5.91-36.89,13.74,0,2.26,1.3,3.37,1.3,5.46,0,2.82-1.3,4.74-1.3,7.88,0,2.09,1.25,4.73,2.7,7.04,1.58,2.42,3.44,4,3.44,6.04,0,1.52-1.02,3.31-1.02,6.87,0,7.6,4.34,12.22,12.78,21.28l1.69,1.81c-6.99,2.7-20,8.33-23.04,9.63-10.49,4.38-13.13,9.74-13.13,18.19,0,3.26,0,6.98.22,10.3h2.04Z"/>
  <path class="st0" d="M74.25,19.49c0-.45-.4-.9-.95-.9-.52,0-.79.34-1.3.74-2.15,1.86-4.06,3.71-6.08,6.03-2.87,3.21-5.29,7.48-7.26,12.16l3.03,1.86c2.09-3.1,8.79-13.69,12.22-19.04.21-.33.33-.62.33-.85Z"/>
  <path class="st0" d="M191.57,256.9c.73-.67,1.07-1.58,1.07-2.92v-4.97c0-1.35-.34-2.26-1.07-2.92-.68-.57-1.58-.9-2.75-.9H60.39c-2.15,0-3.49.73-4.45,1.86-.79.97-1.24,2.03-1.24,3.88v51.15h-.29s-27.99-49.9-29.35-52.21c-.96-1.65-2.03-2.76-3.43-3.61-1.41-.79-2.87-1.3-5.69-1.3H6.72c-2.15,0-3.49.73-4.45,1.86-.79.96-1.24,2.04-1.24,3.89v72.48c0,1.86.45,2.93,1.24,3.89.96,1.13,2.31,1.86,4.45,1.86h5.24c2.15,0,3.49-.73,4.45-1.86.79-.96,1.24-2.04,1.24-3.89v-52.37h.29s29.07,51.48,30.25,53.4c1.64,2.69,4.39,4.73,8.34,4.73h8.96c2.14,0,3.48-.73,4.44-1.86.8-.96,1.24-2.04,1.24-3.89v-65.39h117.67c1.17,0,2.07-.35,2.74-.91Z"/>
  <path class="st0" d="M107.31,266.42c-19.55,0-30.53,15.27-30.53,31.37,0,17.18,11.77,32.28,30.63,32.28,9.41,0,18.64-3.55,23.94-9.8,2.32-2.71,4.18-6.49,4.18-8.79,0-.79-.17-1.47-.62-1.97-.45-.57-1.13-.91-2.31-.91h-9.07c-1.8,0-3.04.67-3.94,2.04-2.64,3.88-6.49,5.92-12.11,5.92-8.44,0-13.91-6.43-14.3-13.47h39.21c1.75,0,2.98-.39,3.82-1.24.97-.9,1.42-2.2,1.42-4.61,0-7.38-2.31-15.05-7.15-20.9-4.96-5.93-12.52-9.93-23.16-9.93ZM93.28,291.09c.74-6.93,6.03-12.1,14.08-12.1s13.35,5.18,14.08,12.1h-28.16Z"/>
  <path class="st0" d="M21.14,65.06c0,.4.28.9.9.9.39,0,.73-.16,1.47-.45l20.61-6.99-1.01-3.38c-8.39,1.41-14.48,3.55-21.4,8.95-.4.35-.56.58-.56.97Z"/>
  <path class="st0" d="M33.64,24.85c-3.15-2.42-6.7-4.39-10.87-6.1l-.73-.17c-.62,0-.9.45-.9.85,0,.34.11.62.62,1.07,4.9,4.16,14.37,12.11,17.29,14.53l2.35-2.7c-2.53-2.97-5.14-5.45-7.77-7.47Z"/>
  <g id="Clear-space" class="st2">
    <path class="st1" d="M-139.21-140.24V469h1565.7V-140.24H-139.21ZM1286.25,328.75H1.03V0h1285.22v328.75Z"/>
  </g>
</svg>